<svg width="640" height="480" viewBox="0 0 640 480" fill="none" xmlns="http://www.w3.org/2000/svg">
<g clip-path="url(#clip0)">
<path fill-rule="evenodd" clip-rule="evenodd" d="M452.444 78.125C455.211 87.1688 456.401 96.0095 458.724 105.121C461.281 115.149 463.976 125.577 467.477 135.309C474.019 153.499 484.697 165.786 494.763 182.5C502.616 195.539 524.324 239.612 528.362 246.564C530.885 250.908 532.505 257.314 534.238 262.03C535.219 264.699 536.273 271.437 535.808 274.176C528.236 273.331 520.187 272.407 512.779 274.176C510.369 274.752 502.102 279.709 499.779 279.129C497.217 278.489 498.733 274.602 497.762 272.234C495.007 265.519 491.927 258.656 489.914 251.707C487.857 244.603 474.103 200.55 466.315 186.235C462.312 178.879 459.317 171.458 454.855 164.369C450.215 156.997 446.369 149.924 438.75 145.255C439.54 138.871 443.178 131.905 445.286 125.807C447.347 119.842 448.319 114.633 449.074 108.276C449.792 102.238 452.089 96.3271 451.211 90.1734C450.755 86.9724 448.658 84.8298 447.883 81.9997C447.437 80.3707 446.234 81.8032 447.934 79.7596C448.728 78.8068 451.431 78.8035 452.444 78.125ZM446.089 82.8413C447.406 89.9995 443.067 99.8625 441.509 106.922C439.878 114.317 437.927 121.54 436.168 128.884C435.297 132.527 433.622 135.73 432.542 139.258C431.331 143.217 430.77 147.348 429.528 151.323C427.051 159.245 423.637 166.842 424.608 175.274C425.452 182.606 426.462 190.51 428.867 197.474C431.72 205.738 434.403 213.541 435.046 222.348C435.656 230.723 433.621 239.443 431.424 247.469C430.646 250.31 424.775 270.918 422.995 270.622C421.64 261.283 414.403 252.138 409.742 244.043C404.38 234.732 396.527 226.671 388.75 219.257C390.933 218.403 393.005 213.898 394.056 211.773C395.508 208.839 397.196 205.868 398.86 203.054C401.908 197.903 410.501 177.426 413.125 172.298C416.231 166.226 436.953 104.927 436.491 98.5745C436.284 95.7343 436.12 94.6832 437.629 92.534C439.606 89.7181 443.827 85.5664 446.089 82.8413ZM398.111 80C398.111 82.8268 398.366 83.3407 396.679 85.2347C395.252 86.8373 393.404 87.995 392.019 89.7274C388.914 93.6121 386.189 97.8215 383.978 102.28C379.682 110.947 376.836 121.202 375.419 130.763C373.855 141.315 374.765 152.14 374.075 162.759C373.818 166.706 373.139 171.368 370.52 174.544C368.178 177.387 363.915 179.47 360.694 181.095C353.32 184.813 347.106 189.728 341.486 195.889C340.115 197.391 339.738 200.815 338.181 202.06C336.609 203.318 331.827 207.05 329.986 207.872C325.707 209.783 309.037 207.975 304.512 207.184C300.001 206.396 293.582 202.634 289.601 200.657C283.951 197.851 276.817 191.902 268.199 182.81C292.604 173.485 320.763 164.69 342.556 149.757C342.68 151.535 345.78 156.45 346.098 154.984C348.135 145.614 349.501 136.119 351.512 126.752C352.046 124.265 352.578 121.769 353.542 119.42C354.025 118.244 348.374 117.341 346.098 118.242C337.617 121.601 328.816 123.24 319.886 125.21C303.429 128.838 284.72 130.229 270.496 140.144C264.428 144.375 258.386 149.777 253.463 155.115C247.998 161.043 242.918 170.817 242.171 179.068C232.292 174.617 219.379 176.539 209.194 177.461C212.89 168.154 224.932 158.976 232.36 152.634C238.495 147.394 244.496 141.965 251.265 137.513C266.368 127.579 281.595 118.173 299.016 112.548C307.637 109.764 316.248 106.953 325.223 105.51C330.116 104.722 335.083 104.481 340.003 103.986C344.802 103.502 346.63 102.476 350.179 99.0993C356.809 92.7929 365.923 91.3868 374.465 89.1234C382.862 86.899 390.93 85.0074 398.111 80ZM249.971 49.3208L261.18 55C256.643 56.8406 253.122 58.0906 250.615 58.75C246.856 59.7391 241.697 74.2202 236.859 74.2202C232.021 74.2202 231.983 61.5854 234.375 56.4155C235.97 52.9689 241.168 50.604 249.971 49.3208Z" fill="#7ED321"/>
<path fill-rule="evenodd" clip-rule="evenodd" d="M209.044 231.351C209.748 231.592 210.008 231.136 209.823 229.983C209.118 229.669 208.858 230.124 209.044 231.351ZM453.419 55.8339C452.304 55.9361 452.935 57.0384 453.597 57.4504C453.538 56.9118 453.479 56.3733 453.419 55.8339ZM388.391 217.877C389.056 217.368 388.819 216.936 387.681 216.586C387.035 217.112 387.272 217.544 388.391 217.877ZM136.332 215.11C132.717 214.529 129.915 209.048 126.934 210.202C123.202 211.646 119.786 218.166 117.236 221.101C119.202 222.682 121.377 224.101 123.459 225.524C125.606 226.992 125.055 227.511 127.219 225.766C128.794 224.498 130.056 222.212 131.363 220.653C132.932 218.778 134.926 217.112 136.332 215.11ZM219.657 422.741C220.297 422.795 220.731 408.347 221.25 406.359C222.404 401.946 224.415 397.503 226.641 393.534C227.591 391.841 229.288 389.656 230.009 387.917C231.12 385.239 229.323 383.41 228.816 380.335C227.736 373.779 229.168 367.985 231.464 361.906C227.237 360.944 223.159 359.362 218.859 358.702C218.859 364.504 218.285 369.366 215.895 374.687C215.296 376.021 214.09 377.103 214.607 378.734C214.774 379.264 216.251 379.609 216.605 380.098C218.597 382.849 218.918 385.035 219.025 388.465C219.385 399.988 218.126 411.299 219.657 422.741ZM189.715 223.422C192.052 225.397 199.511 211.456 202.077 211.536C207.531 211.705 199.783 225.412 199.308 227.088C201.489 226.31 203.553 221.371 204.72 219.456C205.72 217.815 209.397 209.757 211.498 209.26C215.594 208.291 213.777 215.741 213.204 217.488C211.915 221.419 210.654 225.308 209.529 229.291C211.922 227.985 213.697 220.165 214.772 217.611C216.256 214.08 217.445 210.208 219.76 207.119C221.34 205.012 223.94 202.04 226.791 201.892C230.258 201.711 231.561 205.406 234.685 206.097C235.102 198.223 234.327 190.308 235.248 182.457C229.082 182.586 222.883 182.872 216.796 183.922C213.368 184.513 211.092 184.49 209.403 187.697C208.095 190.182 207.072 192.78 205.836 195.301C201.084 204.996 196.004 214.622 189.715 223.422ZM111.714 194.034C107.212 198.654 103.142 203.432 98.9016 208.278C94.6496 213.136 88.7362 216.253 84.7197 221.269C81.0497 225.854 78.2946 231.131 74.7954 235.865C70.9223 241.105 67.717 246.975 64.4186 252.598C67.8182 253.22 68.6562 253.29 70.8583 250.764C72.6815 248.673 74.1737 246.156 76.0139 244.048C80.2919 239.145 84.4161 235.152 89.7619 231.31C94.9872 227.556 101.717 224.271 107.967 222.36C110.404 221.616 111.299 221.804 112.649 219.575C113.617 217.978 113.97 215.978 114.952 214.342C117.073 210.812 120.424 208.828 123.755 206.59C119.991 202.157 115.48 198.535 111.714 194.034ZM412.336 59.5091C411.101 60.4329 410.936 63.9029 410.368 65.3443C409.327 67.9918 407.85 70.4762 406.556 73.0045C404.285 77.443 402.399 82.4119 402.482 87.5033C402.567 92.7366 406.624 95.7419 411.499 96.6909C416.856 97.734 420.967 95.6275 425.675 93.375C430.347 91.1387 434.203 87.6055 437.919 84.0374C440.859 81.2139 442.734 76.6148 446.068 75.0307C449.233 73.526 453.119 72.1958 454.071 67.7314C454.722 64.6816 453.483 65.0393 450.808 65.6898C447.963 66.3809 445.902 68.21 443.262 69.1922C444.732 65.8423 445.085 63.0926 443.275 59.81C442.233 57.9193 440.279 54.7908 437.911 54.7153C436.35 54.6659 434.486 56.3716 433.048 56.9208C431.287 57.5916 429.337 57.9006 427.525 58.4003C422.155 59.8838 417.851 60.1685 412.336 59.5091ZM422.917 270.504C424.718 270.805 430.52 250.264 431.316 247.349C433.509 239.322 435.533 230.596 434.925 222.225C434.284 213.396 431.561 205.642 428.768 197.348C426.411 190.349 425.382 182.498 424.524 175.146C423.541 166.703 426.952 159.118 429.427 151.193C430.57 147.531 431.171 143.785 432.176 140.102C433.233 136.227 435.099 132.714 436.044 128.751C437.797 121.402 439.735 114.181 441.365 106.787C442.916 99.7528 447.151 91.3805 445.841 84.2369C443.635 86.9039 440.97 89.2294 438.791 91.8493C436.57 94.5227 437.342 94.732 437.611 98.438C438.055 104.558 436.768 111.667 435.343 117.612C432.371 130.008 427.117 141.265 423.282 153.291C421.312 159.474 420.528 166.446 417.74 172.282C415.241 177.514 411.782 182.166 409.131 187.223C406.225 192.765 402.823 197.997 399.645 203.388C398.14 205.942 396.575 208.442 395.238 211.091C394.113 213.324 392.866 218.708 390.662 219.572C398.422 226.997 404.363 234.6 409.711 243.922C414.365 252.036 421.565 261.143 422.917 270.504ZM439.063 145.184C446.388 149.675 450.058 156.273 454.554 163.354C459.038 170.419 463.237 177.651 467.228 185.005C475.169 199.633 481.011 214.164 485.399 230.251C487.378 237.506 490.258 244.551 492.315 251.655C494.215 258.218 494.833 264.897 497.567 271.187C498.322 272.923 498.906 276.764 500.908 277.377C503.267 278.1 509.598 274.863 511.984 274.266C519.733 272.333 527.815 271.943 535.761 272.831C536.226 270.093 533.084 264.694 532.104 262.026C530.486 257.617 529.031 252.916 526.861 248.748C523.123 241.57 518.802 234.588 514.478 227.824C509.896 220.658 506.128 212.97 501.443 205.981C499.281 202.756 496.19 198.405 494.768 194.819C494.065 193.047 493.846 192.363 492.998 190.86C492.259 189.547 491.395 188.253 490.614 186.954C480.763 170.586 473.487 153.973 467.154 136.131C463.687 126.364 460.789 116.533 458.046 106.537C455.467 97.1435 454.979 87.4562 452.114 78.0943C450.43 79.2234 447.603 79.0652 447.655 81.3031C447.665 81.7427 450.028 84.8761 450.287 85.4852C450.81 86.7206 451.131 88.0257 451.37 89.3421C452.534 95.7386 450.198 101.944 449.374 108.227C448.576 114.307 447.857 119.285 445.783 124.989C443.539 131.166 439.864 138.709 439.063 145.184ZM270.395 182.982C277.554 189.207 284.186 196.193 292.66 200.398C296.641 202.373 299.805 205.172 304.316 205.959C308.845 206.749 313.516 206.302 318.06 205.979C322.706 205.649 326.909 205.594 331.188 203.685C333.029 202.864 335.829 202.069 337.401 200.813C338.958 199.568 339.939 197.55 341.309 196.049C346.929 189.894 353.145 184.982 360.517 181.268C368.733 177.127 373.28 172.424 373.897 162.948C374.587 152.339 373.677 141.523 375.241 130.98C376.661 121.414 379.499 111.189 383.801 102.523C386.011 98.0681 388.736 93.8625 391.84 89.9813C393.226 88.2503 395.073 87.0929 396.5 85.4925C398.187 83.6002 397.933 83.0867 397.933 80.2624C390.751 85.2646 382.684 87.1553 374.287 89.3778C365.772 91.6319 356.609 93.066 350.002 99.3449C346.454 102.718 344.625 103.744 339.826 104.226C334.906 104.722 329.94 104.963 325.047 105.749C316.069 107.192 307.464 110 298.84 112.781C281.421 118.402 266.193 127.799 251.091 137.724C244.319 142.175 238.326 147.594 232.186 152.832C224.759 159.169 214.773 167.659 211.077 176.957C221.254 176.037 231.587 173.099 241.464 177.546C242.214 169.281 247.82 161.239 253.289 155.311C258.139 150.055 264.07 144.803 270.004 140.574C284.206 130.455 303.144 127.833 319.676 124.192C328.613 122.223 336.943 120.688 345.429 117.331C347.579 116.481 353.848 112.676 355.031 114.943C355.788 116.391 353.848 118.472 353.365 119.648C352.531 121.678 352.055 123.79 351.571 125.935C349.39 135.613 348.031 145.477 345.921 155.18C345.611 156.609 345.197 163.072 342.628 162.194C340.916 161.609 342.503 151.74 342.38 149.957C320.584 164.881 294.803 173.664 270.395 182.982ZM294.893 349.577C290.049 349.786 285.117 352.393 280.421 353.578C274.091 355.177 267.448 356.805 261.589 359.672C258.471 361.198 258.441 362.091 259.295 365.569C259.966 368.304 260.74 370.951 261.304 373.734C262.705 380.642 264.271 387.462 266.014 394.29C284.053 379.237 307.081 370.724 329.585 364.925C332.769 364.104 336.012 363.852 339.24 363.29C342.067 362.799 345.288 363.149 347.968 362.593C349.69 362.236 351.247 361.076 353.007 360.668C356.815 359.785 361.353 359.715 365.017 358.36C369.92 356.548 375.404 354.152 380.256 351.683C385.551 348.985 389.813 347.015 390.891 341.214C391.746 336.613 393.89 332.315 394.557 327.799C395.425 321.91 394.347 316.678 393.984 310.79C393.144 297.168 391.162 283.399 387.698 270.112C384.376 257.372 382.005 244.33 379.716 231.416C379.27 228.899 378.378 226.58 377.794 224.106C376.821 219.991 374.887 221.046 371.151 221.288C364.162 221.739 356.772 218.952 350.969 215.189C348.228 213.414 344.765 209.353 341.631 208.48C338.839 207.703 335.99 211.473 333.325 212.736C326.957 215.755 319.149 216.571 312.2 217.047C297.039 218.086 285.55 208.22 275.219 198.185C268.284 205.939 260.769 213.312 252.717 219.901C246.081 225.331 240.441 232.382 234.918 238.846C229.729 244.922 225.533 254.37 218.486 258.626C214.377 261.109 211.314 259.538 207.346 257.042C204.197 255.06 200.724 253.979 197.553 252.15C182.913 243.703 169.089 234.163 154.785 225.208C151.657 223.25 146.74 218.643 143.059 218.312C140.331 218.066 140.546 218.748 138.969 221.006C137.44 223.194 135.89 225.367 134.373 227.563C128.426 236.17 122.087 245.055 117.267 254.351C127.759 251.849 137.68 251.464 148.005 252.942C157.505 254.302 169.632 255.944 178.041 261.078C181.633 263.272 185.161 265.735 188.744 268.228C193.242 271.358 196.734 275.734 201.713 278.094C206.008 280.129 210.655 281.051 215.118 282.567C220.134 284.27 227.249 287.445 232.575 286.066C237.114 284.89 240.914 280.866 244.331 278.093C248.776 274.487 254.178 272.02 258.676 268.658C266.648 262.701 274.97 257.61 283.543 252.286C293.781 245.927 303.602 238.618 314.229 233.021C316.318 231.919 318.384 231.156 320.329 229.84C322.157 228.604 323.474 226.34 325.673 227.954C327.629 229.386 326.775 232.026 326.183 233.864C325.629 235.587 325.115 236.139 325.473 237.642C325.806 239.041 327.959 241.187 328.698 242.555C332.191 249.013 334.685 255.946 338.031 262.478C341.287 268.83 344.961 274.942 347.989 281.415C353.966 294.191 362.311 305.512 367.604 318.699C365.166 319.697 364.863 317.642 362.972 317.447C360.905 317.234 361.653 317.627 359.601 319.107C356.849 321.092 353.897 322.346 350.944 323.895C344.369 327.342 337.636 331.399 330.541 333.781C318.354 337.874 307.122 345.107 294.893 349.577ZM504.593 289.928C504.172 292.952 503.631 295.953 503.19 298.971C502.88 301.105 501.685 304.196 501.957 306.307C505.096 304.825 508.475 299.856 510.899 305.291C512.343 308.528 510.533 314.954 510.106 318.438C513.655 317.718 512.853 309.003 518.523 311.816C522.883 313.978 519.832 324.969 523.24 326.039C525.595 322.327 525.207 313.905 525.978 309.486C526.339 307.415 525.821 304.632 528.246 304.498C530.346 304.381 532.009 307.424 533.003 308.815C533.949 303.765 536.504 299.283 535.389 294.634C534.7 291.758 533.994 288.88 533.256 286.015C532.822 284.328 532.361 279.152 530.894 277.993C528.164 275.835 518.192 279.677 515.176 280.543C512.425 281.334 508.918 282.083 506.386 283.416C503.726 284.817 504.542 286.833 504.593 289.928ZM416.223 116.114C420.307 115.667 423.847 113.192 426.981 110.612C432.117 106.384 432.897 103.072 433.873 96.557C427.285 99.7674 422.419 102.423 414.987 102.557C406.479 102.71 402.297 97.7218 398.384 90.8581C397.335 92.4576 395.837 94.1545 395.071 95.9073C394.103 98.1217 394.226 97.6618 394.506 99.9094C394.94 103.379 396.668 107.826 398.425 110.871C402.217 117.445 409.673 118.335 416.223 116.114ZM248.055 380.235H255.779C255.337 377.405 254.894 374.576 254.451 371.746C254.065 369.276 254.706 365.802 252.279 365.372C250.268 365.016 248.273 367.244 246.228 367.044C243.894 366.817 242.552 365.143 239.846 365.816C235.995 366.776 236.765 370.993 236.707 374.532C236.686 375.923 236.15 378.013 236.585 379.364C237.342 381.722 236.71 380.781 239.054 381.011C241.805 381.281 245.22 380.389 248.055 380.235ZM439.549 39.407C442.38 39.8572 449.708 45.879 451.777 44.4425C454.585 42.4934 446.511 37.1083 444.857 36.2607C436.772 32.1175 421.65 35.3912 416.215 42.9557C419.778 43.302 424.129 40.0397 427.783 39.5036C431.698 38.9293 435.617 39.4168 439.549 39.407ZM437.577 195.249C439.881 204.532 444.018 214.479 443.993 224.129C443.967 234.159 441.752 243.262 437.693 252.446C435.662 257.041 433.844 261.686 431.536 266.153C430.469 268.222 429.486 270.757 428.008 272.561C426.186 274.787 425.621 274.622 423.453 272.855C422.485 275.332 421.469 277.886 418.176 276.22C415.805 275.021 415.856 272.048 415.079 269.839C412.999 263.915 408.552 258.806 405.412 253.41C402.192 247.877 399.475 241.926 395.913 236.608C394.198 234.047 392.155 231.662 390.323 229.176C388.934 227.292 386.814 222.934 384.884 221.828C384.629 224.313 387.279 227.93 388.258 230.356C389.543 233.542 390.646 236.818 391.573 240.125C393.375 246.547 394.464 253.259 395.836 259.788C398.288 271.46 401.181 283.057 402.822 294.903C404.349 305.924 404.755 317.312 403.595 328.382C403.097 333.137 400.31 337.158 398.43 341.488C395.875 347.375 392.771 351.046 387.64 355.222C378.321 362.805 368.005 367.343 356.655 370.728C354.538 371.359 352.571 371.085 350.585 371.513C348.356 371.993 346.583 373.128 344.161 373.507C337.909 374.484 331.549 375.634 325.514 377.406C320.756 378.804 316.057 380.259 311.351 381.711C307.765 382.817 303.346 383.846 299.893 385.476C291.376 389.499 283.387 394.219 275.484 399.22C273.167 400.687 271.458 401.575 269.749 403.745C267.901 406.092 268.168 407.752 267.16 410.429C266.22 412.928 264.579 414.336 262.349 412.258C260.265 410.317 261.089 406.22 260.92 403.817C260.665 400.194 258.518 386.341 256.024 385.183C254.223 384.347 248.958 386.145 246.775 386.385C243.945 386.696 241.396 386.689 238.578 386.302C239.509 390.181 236.107 395.425 234.678 398.835C232.242 404.651 230.346 410.316 229.336 416.505C228.648 420.725 228.869 424.962 228.221 429.231C227.552 433.638 228.566 440.547 222.581 441.208C213.081 442.258 210.658 423.252 209.578 416.879C207.883 406.883 209.224 397.034 210.224 386.985C210.306 386.17 210.72 382.59 210.351 381.94C210.051 381.411 207.38 380.497 207.036 380.253C204.025 378.113 205.251 376.975 206.147 373.787C207.86 367.695 207.363 360.084 211.478 354.757C214.626 350.682 221.693 353.158 225.765 354.258C228.799 355.078 231.797 356.181 234.746 357.273C236.784 358.028 239.061 360.287 240.846 360.652C244.407 361.379 247.031 356.832 249.687 355.221C254.479 352.317 259.478 349.646 264.641 347.698C274.129 344.119 283.948 342.064 293.682 339.051C299.642 337.208 305.528 335.192 311.189 332.528C315.373 330.56 319.591 327.789 324.117 326.456C329.818 324.776 335.603 322.441 341.168 320.119C347.086 317.651 353.561 316.068 359.636 314.067C346.99 295.556 336.184 275.755 327.5 255.071C326.498 252.687 325.536 250.288 324.65 247.858C324.198 246.621 323.089 241.075 321.913 240.293C319.776 238.872 311.189 245.312 308.798 246.88C300.129 252.558 291.816 258.765 282.786 263.926C274.965 268.396 267.587 273.579 260.108 278.373C255.989 281.013 252.158 284.379 247.97 287.046C243.793 289.704 238.878 294.655 233.93 295.803C232.084 296.232 228.955 295.708 227.089 295.557C224.459 295.343 221.522 295.107 218.964 294.376C213.948 292.944 208.649 291.318 203.747 289.535C194.936 286.331 188.107 278.427 180.164 273.546C170.59 267.664 159.746 266.198 149.046 262.946C137.339 259.39 124.354 259.002 111.998 259.926C111.998 248.652 117.44 240.196 123.379 230.944C119.101 228.136 117.297 226.386 112.51 228.984C108.958 230.911 105.684 232.645 102.389 234.799C98.811 237.14 95.0026 238.936 91.4386 241.503C87.5655 244.292 84.1772 247.252 80.6004 250.375C77.9108 252.723 74.8473 254.858 72.0339 256.981C69.2553 259.077 66.4257 258.774 62.8723 257.345C61.8246 256.923 58.5522 255.452 57.9984 254.743C56.882 253.314 57.7078 252.317 58.6348 250.432C60.7794 246.071 63.5192 241.645 66.318 237.657C68.8165 234.099 72.059 231.127 74.6748 227.656C77.1587 224.364 78.9342 220.539 81.8115 217.555C85.0289 214.217 88.8446 211.538 91.8823 207.981C93.3971 206.207 95.1232 204.315 95.243 202.222C95.3353 200.616 93.5469 199.06 93.5299 197.907C93.4918 195.202 98.1268 192.451 100.062 190.461C102.903 187.538 105.709 185.013 110.097 186.267C113.318 187.187 118.165 191.247 120.565 193.607C123.585 196.577 126.088 200.015 129.203 202.953C130.954 204.606 132.821 206.114 134.631 207.698C135.701 208.634 137.397 211.319 138.581 211.867C139.639 212.358 140.672 211.894 142.151 211.854C141.485 211.871 144.858 212.439 144.678 212.39C146.274 212.817 147.85 213.281 149.423 213.789C155.89 215.879 161.848 219.404 167.683 222.914C182.504 231.83 196.411 241.332 210.927 250.835C215.227 253.649 216.409 253.449 219.71 249.42C222.79 245.661 225.344 241.484 228.238 237.587C233.007 231.167 238.383 224.922 244.013 219.216C249.809 213.345 256.49 208.429 262.685 202.996C264.405 201.487 271.495 196.392 271.047 194.482C270.794 193.403 268.502 191.582 267.776 190.478C266.693 188.832 265.57 186.974 264.771 185.157C260.065 174.465 272.278 173.733 279.423 170.428C288.147 166.394 296.783 161.937 305.699 158.335C310.176 156.527 314.659 154.876 319.179 153.199C323.34 151.656 327.129 149.153 331.224 147.45C334.24 146.195 340.792 145.717 342.802 143.047C343.988 141.473 343.477 136.5 343.685 134.666C344.03 131.622 344.537 128.595 345.333 125.634C343.838 125.365 341.032 127.007 339.673 127.638C337.056 128.853 334.776 130.049 331.872 130.813C325.659 132.447 319.153 132.633 313.03 134.406C303.713 137.107 293.777 138.669 284.663 142.544C274.169 147.004 265.134 154.85 257.762 163.319C253.957 167.69 250.931 171.892 248.335 177.081C247.662 178.425 246.865 182.928 245.831 183.866C244.514 185.06 241.04 183.804 239.543 183.557C239.543 187.531 239.626 191.511 239.484 195.478C239.332 199.666 240.088 206.09 238.638 209.953C237.279 213.58 234.741 212.83 232.053 211.026C228.481 208.63 226.649 207.255 223.447 210.968C217.877 217.427 215.769 227.461 211.949 235.021C210.697 237.497 207.612 242.682 205.924 237.592C204.695 233.883 206.734 229.152 205.781 225.487C204.479 227.774 200.587 234.576 197.507 234.557C193.269 234.531 194.652 227.951 194.793 225.269C192.294 227.936 184.961 236.651 183.186 229.665C181.823 224.304 185.629 218.983 188.331 214.762C191.476 209.85 194.567 204.863 197.83 200.035C201.023 195.31 203.16 189.956 206.397 185.202C203.929 185.544 199.154 184.737 200.671 180.918C201.465 178.921 203.976 179.76 205.201 178.52C206.478 177.229 207.165 173.563 207.88 171.871C211.401 163.534 216.449 156.679 222.287 149.9C232.603 137.919 245.774 128.355 259.053 120.331C274.876 110.772 291.187 104.959 308.904 100.286C317.299 98.0722 325.813 97.0542 334.3 95.4596C337.822 94.7977 341.396 94.4246 344.183 92.1924C348.339 88.8635 351.08 86.3994 356.089 84.275C360.137 82.5587 363.978 81.767 368.394 81.0338C373.125 80.247 378.555 81.2933 383.102 79.9574C386.881 78.8462 391.285 76.4339 394.717 74.5034C396.446 73.5317 399.507 72.9842 400.44 72.1577C402.242 70.563 403.435 66.5869 404.585 64.4455C401.739 65.191 400.655 63.1688 399.893 60.7193C398.626 56.6458 398.613 57.9996 394.658 56.2938C392.316 55.2831 391.558 52.5861 389.701 51.629C387.711 50.6013 384.552 52.8173 382.201 52.097C380.295 51.5122 378.431 49.4633 378.535 47.2822C378.578 46.3721 379.537 45.5643 379.554 44.8229C379.596 43.0855 378.177 42.1259 378.384 40.2214C378.705 37.2738 380.202 37.7718 378.931 34.5776C377.665 31.398 378.159 30.771 378.539 27.4754C378.645 26.5646 378.177 25.0972 378.813 24.3226C379.184 23.87 380.541 23.8003 380.68 23.5715C381.198 22.7174 381.214 22.0158 381.319 20.4495C381.379 19.5573 381.103 17.7728 382.031 17.1126C382.837 16.5391 383.981 17.6049 384.687 17.2675C385.3 16.9747 385.831 15.5155 386.837 15.3394C390.555 14.6889 389.42 18.4712 391.319 13.7505C392.418 11.0162 393.263 9.89682 395.236 8.34191C396.093 8.73773 396.628 8.57794 396.841 7.86091C397.129 7.3426 397.419 6.82511 397.708 6.30761C399.246 5.94342 399.467 7.09602 400.658 5.9637C402.657 4.06324 400.6 -0.145668 404.638 0.98098C407.567 1.79778 408.279 5.55327 411.342 6.45524C411.765 5.23207 411.71 1.65664 413.489 1.29488C415.3 0.926635 416.679 4.2279 417.338 5.30588C417.767 4.37877 418.476 1.6023 419.182 0.92339C421.21 -1.02736 420.596 0.862556 422.391 1.12211C422.673 1.45224 422.955 1.78318 423.237 2.11412C424.176 1.65583 425.1 1.1724 426.01 0.660587C427.978 0.288282 427.277 0.491874 428.993 1.18619C430.366 1.74181 429.545 2.37692 431.213 2.72651C432.424 2.97877 433.449 1.72153 434.797 2.10682C435.189 2.27796 435.582 2.44992 435.974 2.62107C436.529 3.85316 437.382 4.07135 438.532 3.27483C439.887 3.83369 441.716 6.07969 443.158 6.00588C445.917 5.86231 445.268 2.06545 448.292 2.2512C449.414 2.31933 452.313 5.33508 453.113 6.23056C454.234 7.48698 453.917 8.57226 455.321 9.98524C457.357 12.0317 456.162 10.9342 458.106 11.8605C461.002 13.2419 462.069 12.7195 463.261 16.0443C464.299 18.936 464.88 22.5333 464.892 25.5969C464.898 27.5087 463.523 31.7249 466.177 30.8002C468.039 30.1513 467.726 25.5352 469.724 26.9831C471.244 28.083 468.246 33.9644 468.211 35.3441C468.111 39.3138 468.745 39.6317 466.284 42.598C465.118 44.0029 462.447 46.592 461.855 48.4121C461.155 50.5648 463.013 54.2935 463.442 56.2167C464.372 60.3908 463.587 61.2724 460.83 64.5526C460.534 64.7294 460.239 64.9071 459.943 65.0839C458.471 65.0807 458.062 65.8147 458.717 67.2845C458.131 68.9237 458.201 70.5038 457.372 72.1512C456.919 73.0515 454.916 74.8741 454.814 75.7647C454.634 77.3529 455.422 77.6311 456.759 79.2777C462.15 85.9159 464.618 94.5179 467.285 102.503C471.981 116.567 477.77 130.284 483.377 144.049C485.562 149.415 487.776 154.568 490.044 159.993C492.866 166.747 496.833 172.914 500.188 179.46C502.506 183.985 504.873 188.952 507.77 192.855C511.416 197.766 513.464 204.078 516.662 209.395C520.076 215.072 524.064 220.668 527.357 226.511C530.507 232.099 534.398 237.215 537.389 242.955C541.122 250.121 545.47 258.731 546.497 266.852C546.861 269.73 547.993 274.477 546.207 276.939C544.358 279.488 539.266 280.554 536.682 278.651C539.266 284.666 540.872 291.405 542.032 297.837C542.532 300.616 543.23 303.069 542.618 305.908C542.07 308.446 542.978 306.968 540.929 308.453C539.212 309.695 540.006 306.192 538.657 309.764C538.373 310.517 538.931 312.607 538.91 313.481C538.833 316.991 538.571 320.564 538.434 324.094C538.331 326.773 538.762 329.032 535.472 328.749C532.834 328.522 531.528 325.721 530.358 323.744C529.918 326.891 529.666 330.033 529.303 333.189C528.981 335.989 529.624 338.755 526.039 338.453C520.161 337.957 517.844 327.304 516.354 322.853C513.676 326.381 512.374 333.387 511.196 337.702C510.075 341.809 508.767 350.552 503.036 345.173C499.218 341.59 500.697 334.54 501.382 329.954C501.608 328.441 504.832 315.149 503.324 314.383C501.169 316.689 498.659 320.456 495.11 318.423C491.921 316.596 492.959 312.537 493.213 309.607C493.935 301.272 496.795 293.282 498.916 285.205C497.709 284.935 494.776 284.695 493.782 283.797C492.508 282.646 493.294 282.087 492.734 280.617C491.978 278.625 490.62 276.602 489.547 274.711C486.052 268.547 484.975 262.403 483.169 255.696C481.425 249.217 478.139 243.515 476.397 236.954C474.465 229.685 472.408 222.542 470.129 215.302C465.153 199.486 457.986 184.427 449.745 170.082C448.663 168.199 439.799 147.855 438.463 148.456C437.511 148.885 436.966 154.149 436.602 155.572C435.76 158.866 435.595 162.329 435.397 165.725C432.149 173.644 435.606 187.309 437.577 195.249Z" fill="black"/>
<path fill-rule="evenodd" clip-rule="evenodd" d="M137.99 168.439C141.299 169.229 142.483 161.515 142.854 159.127C143.453 155.255 144.141 151.925 146.226 148.54C147.241 146.893 148.453 145.2 149.768 143.781C150.536 142.954 152.46 141.877 152.861 140.99C153.972 138.538 152.681 132.373 152.696 129.613C152.706 127.841 151.547 119.596 153.627 119.021C156.329 118.272 157.033 125.792 157.332 127.485C157.674 129.423 157.618 131.292 157.824 133.21C158.015 135 158.99 136.108 159.363 137.301C160.43 140.71 157.896 143.573 156.08 146.644C154.059 150.062 151.871 153.383 150.452 157.115C148.913 161.163 149.011 165.427 147.807 169.526C145.85 176.187 137.643 179.819 130.995 177.865C127.461 176.826 128.204 174.438 127.085 171.686C126.66 170.641 125.469 170.061 125.115 168.674C124.739 167.205 125.083 165.294 125.371 163.811C126.77 156.631 129.038 149.114 131.23 142.129C119.301 148.7 106.667 153.029 92.9299 152.783C86.1022 152.66 81.1277 151.194 76.1816 157.029C72.3488 161.551 72.3536 169.503 70.7894 175.126C69.0916 181.231 67.5606 189.05 63.6953 194.157C59.0326 200.322 52.6664 199.307 52.1911 191.087C51.7855 184.079 55.271 177.437 54.6865 170.323C54.3926 166.744 52.983 163.59 53.0696 159.965C53.1441 156.85 53.7554 153.924 54.3318 150.857C47.509 151.684 42.2245 154.489 37.3771 159.193C32.8383 163.598 30.9453 169.036 27.1975 174.073C23.7776 178.669 20.7511 184.994 14.0004 184.837C5.38334 184.637 4.84088 174.026 8.07216 168.355C9.72382 165.457 12.0183 163.188 14.1178 160.634C16.4422 157.808 16.7167 155.539 17.196 151.929C17.5603 149.176 17.6607 145.539 20.1374 143.724C22.3648 142.089 25.1613 142.884 27.2218 140.718C29.1933 138.648 30.7494 135.513 32.5201 133.224C34.7312 130.366 37.0201 127.413 38.9867 124.379C43.2179 117.848 48.7785 113.304 54.6395 108.194C52.5142 106.869 46.9107 108.333 44.2785 107.914C39.9542 107.224 34.358 105.165 31.0077 102.204C24.0529 96.0554 20.7107 88.0581 20.3682 78.8153C20.0387 69.938 21.4312 59.2309 28.0274 52.6339C31.389 49.271 35.6931 46.3278 39.9405 44.1837C42.7685 42.7566 48.5931 39.6441 51.8632 40.9293C59.4131 43.8992 42.3378 55.7108 40.0862 57.6005C32.9128 63.6214 28.735 69.4324 28.9018 79.0633C29.0629 88.4276 38.0848 92.8797 45.6306 95.9776C49.5444 97.5845 54.2719 98.8738 58.644 98.7563C63.5982 98.6242 66.9679 95.7783 71.4809 94.109C80.3634 90.8238 89.4759 88.6148 98.6322 86.4018C107.648 84.2211 117.456 84.7138 126.689 83.2901C135.37 81.9514 143.48 80.3007 151.685 77.1436C160.181 73.8747 166.734 64.1246 176.001 63.0987C181.748 62.4634 178.939 66.5321 176.456 68.6188C173.484 71.1154 170.258 73.2904 167.285 75.7952C159.712 82.1742 151.778 85.9269 142.18 88.3588C135.207 90.1245 127.689 91.776 120.28 92.8294C110.925 94.16 101.51 93.7443 92.3202 96.1672C86.8794 97.6015 81.5957 99.4281 76.4626 101.759C74.3599 102.713 70.0114 104.242 69.6219 105.94C69.1167 108.138 70.8752 108.094 68.7556 110.118C65.1851 113.529 60.541 115.94 56.9348 119.479C52.9182 123.422 49.0975 127.245 45.8436 131.868C42.6163 136.453 40.0392 140.898 35.2599 144.061C33.6755 145.11 30.9858 146.948 29.1852 147.43C27.5278 147.874 26.7708 147.195 25.3523 148.117C21.5794 150.568 23.8399 158.223 22.8441 162.013C21.5705 166.867 18.3093 170.511 16.2787 175.014C19.1197 174.399 21.1033 169.694 22.5639 167.474C24.201 164.985 26.2745 163.308 28.3577 161.157C32.7379 156.634 33.8973 150.449 39.1041 146.191C48.5364 138.478 63.1982 139.143 71.0679 128.804C72.3423 127.129 73.5398 122.288 75.0692 121.234C77.8705 119.305 77.6333 125.071 77.3451 126.782C76.3597 132.625 72.7569 139.53 68.0464 143.217C65.9146 144.888 62.9327 145.652 61.0826 147.819C60.6292 147.998 60.1774 148.179 59.724 148.359C59.9945 149.322 60.1418 150.301 60.1637 151.295C60.2066 153.032 59.7856 154.727 59.7151 156.479C59.5395 160.889 60.5151 164.66 61.3984 168.885C62.0307 171.903 60.3297 178.193 61.685 180.654C64.3633 171.665 67.5128 161.284 72.5868 153.296C73.7859 151.406 76.1638 149.846 77.1079 147.9C77.5564 147.402 78.0049 146.903 78.4535 146.405C77.6673 145.676 76.9824 144.864 76.3986 143.968C73.356 137.573 80.0226 141.527 82.6823 142.07C86.958 142.943 92.2862 141.149 96.7263 141.015C101.053 140.884 105.32 140.739 109.549 140.068C114.117 139.343 118.855 138.248 123.324 137.05C127.81 135.846 131.955 133.369 136.316 132.281C131.957 129.301 130.577 125.422 129.069 120.578C128.078 117.393 124.557 109.664 126.773 106.431C129.175 102.925 130.033 108.317 130.811 110.227C132.129 113.456 134.124 118.965 136.566 121.388C137.883 122.695 139.661 122.551 140.837 124.293C141.702 125.575 141.819 127.347 141.954 128.833C142.355 133.221 140.62 136.734 139.073 140.729C135.464 150.043 134.006 160.005 129.286 168.866C132.157 169.141 135.128 168.729 137.99 168.439Z" fill="black"/>
<path fill-rule="evenodd" clip-rule="evenodd" d="M198.375 95.053C200.678 94.5115 207.927 93.7203 205.824 89.4976C203.696 85.2262 198.032 92.1339 198.375 95.053ZM266.994 61.4245C265.641 61.0046 263.495 60.0261 262.047 60.1299C260.331 60.2531 259.055 61.4967 257.314 61.6612C253.761 61.9968 251.013 60.4809 248.692 64.2748C253.631 64.2748 263.512 65.9496 266.994 61.4245ZM173.801 149.91C178.502 150.566 180.838 129.804 181.086 127.084C178.978 126.868 173.295 131.009 172.798 132.916C172.254 135.012 174.129 138.374 174.357 140.552C174.694 143.776 174.336 146.736 173.801 149.91ZM199.997 31.3953C194.337 31.9465 188.004 33.7786 182.81 30.6308C178.598 28.0797 177.038 22.6969 173.49 19.537C173.49 28.6504 181.685 35.8312 190.024 38.7228C194.27 40.195 200.776 37.9746 204.527 40.3741C205.615 41.0697 207.934 44.2385 208.019 45.5478C208.31 50.0096 205.129 46.0163 203.328 46.1541C200.824 46.3454 197.34 52.9442 195.253 54.9506C193.684 56.46 191.912 57.6849 190.139 58.982C189.554 59.41 186.551 60.9292 186.401 61.6636C186.269 62.3154 187.916 64.7109 188.263 65.3286C190.65 69.583 193.527 72.6319 197.301 75.6329C199.16 77.1116 201.097 77.9352 202.962 79.1633C203.569 79.5654 206.043 82.9337 205.324 82.7918C206.363 79.6359 209.322 75.9807 211.291 73.1904C213.309 70.3296 215.969 67.3326 219.352 66.1741C220.838 65.6651 223.299 65.2281 224.846 65.1033C225.932 65.0652 227.008 65.1543 228.073 65.3708C229.624 66.055 230.231 65.5045 229.893 63.717C231.523 60.3334 230.563 56.0733 232.634 52.6362C235.066 48.6007 239.043 46.7727 243.6 47.2274C245.648 47.4317 247.854 48.3105 249.882 47.9522C251.891 47.5971 254.168 45.9758 256.134 45.277C263.772 42.5613 273.197 39.2611 279.185 33.6035C280.094 32.7458 282.66 30.3657 282.862 29.1327C282.327 27.9297 281.794 26.7283 281.26 25.5261C281.12 23.7637 280.262 23.283 278.688 24.0848C276.833 24.0459 273.316 26.1738 271.46 26.7826C269.103 27.556 266.733 28.2361 264.415 29.1092C260.39 30.6243 256.472 32.1808 252.247 33.0823C247.871 34.0145 245.789 34.5828 243.486 30.4379C241.234 26.3862 241.554 24.0167 236.313 24.6093C231.642 25.1362 227.727 26.8986 223.42 28.7582C220.56 29.9928 216.834 32.2667 213.925 32.754C211.77 33.1155 209.443 32.2757 207.366 31.8428C204.743 31.2972 202.664 31.3929 199.997 31.3953ZM254.258 54.9263H256.611C254.787 53.8546 252.962 52.7821 251.139 51.7104C248.571 55.8545 242.153 54.0524 238.263 56.5216C235.067 58.5499 232.068 67.1931 235.135 70.3409C239.399 74.7161 241.498 65.0084 242.708 62.7718C245.172 58.22 248.882 54.8112 254.258 54.9263ZM179.688 64.2043C177.779 60.6017 179.031 57.158 181.864 55.2465C185.951 52.4894 190.065 49.4689 194.073 46.4144C187.261 45.3459 182.379 43.0931 176.825 38.9385C170.417 34.1442 168.593 29.714 168.773 21.6163C168.863 17.5517 168.294 5.99898 174.855 9.35267C180.276 12.1235 181.023 19.8718 186.855 22.4983C192.615 25.0924 199.401 22.4018 205.46 24.422C207.184 24.9976 211.796 29.046 213.198 29.0273C215.059 29.0014 219.734 24.8881 221.494 23.9113C225.909 21.4615 231.621 19.0725 236.54 18.3664C239.629 17.923 240.635 17.6052 242.874 19.8823C245.381 22.4318 246.167 25.5837 247.062 28.896C256.574 24.9797 266.182 21.3245 275.962 18.1313C279.068 17.1172 281.201 15.8201 283.851 14.1858C287.645 11.8463 289.756 12.9293 290.446 17.7665C291.661 26.2881 286.454 31.7382 281.928 38.1165C279.433 41.6339 277.728 44.1186 273.671 45.915C269.447 47.7844 264.364 47.182 259.777 48.5869C260.954 50.0202 261.576 53.3576 262.612 54.3653C263.455 55.1841 267.489 55.0479 268.85 55.7629C272.927 57.9062 272.443 61.4837 269.916 65.0214C267.066 69.0115 262.852 69.7467 258.248 70.0945C256.187 70.2493 254.349 70.2777 252.287 70.1318C250.952 70.0378 246.305 68.5956 245.299 69.0228C244.107 69.5278 243.83 72.1568 243.288 73.3574C242.426 75.2657 241.467 77.1967 239.438 78.0787C237.682 78.8407 235.703 78.6348 234.107 77.5882C231.967 76.1866 232.554 74.532 231.207 72.7324C231.08 70.8371 230.272 70.4779 228.782 71.6534C227.645 72.0514 226.509 72.4535 225.375 72.8596C223.029 73.7141 220.838 74.5385 218.773 75.9742C214.818 78.7231 212.422 83.3609 208.014 85.2935C210.891 90.2094 209.094 96.8973 204.254 99.4501C203.163 100.025 201.827 100.732 200.667 101.105C199.804 101.383 197.543 101.157 196.96 101.64C196.115 102.339 195.65 108.962 195.058 110.437C193.023 115.51 188.702 118.034 186.144 122.636C183.649 127.126 184.185 134.095 183.459 139.153C182.559 145.418 181.988 151.994 179.305 157.807C177.511 161.696 172.126 166.307 167.372 165.541C160.383 164.414 163.422 155.484 165.565 151.635C168.872 145.7 168.868 141.209 168.03 134.643C165.27 135.053 158.433 137.753 158.761 132.494C158.986 128.908 166.729 125.62 169.443 123.818C175.577 119.747 181.855 115.01 187.035 109.793C189.176 107.637 192.241 103.655 193.331 100.706C194.124 98.5535 193.954 96.4604 194.127 94.21C194.285 92.1387 196.103 89.2941 196.013 87.4839C195.879 84.799 188.81 80.509 186.788 77.666C183.908 73.616 181.487 68.8266 179.688 64.2043Z" fill="black"/>
<path fill-rule="evenodd" clip-rule="evenodd" d="M321.29 73.2202C323.457 72.9367 331.784 70.6293 333.214 72.7893C335.823 76.7295 328.154 77.4632 326.225 77.8204C317.702 79.3965 309.365 81.4925 301.1 83.8404C284.66 88.5103 267.898 94.3707 252.586 101.978C250.188 103.169 243.141 108.018 240.741 105.568C237.64 102.405 245.163 98.8948 246.886 97.9092C254.524 93.5398 262.594 89.6206 270.791 86.4029C286.937 80.0662 303.997 75.1267 321.29 73.2202Z" fill="black"/>
<path fill-rule="evenodd" clip-rule="evenodd" d="M115.8 281.21C128.03 279.386 141.317 282.078 153.186 285.791C156.989 286.981 160.953 288.362 164.434 290.302C166.309 291.345 170.768 293.203 171.829 295.155C173.6 298.41 171.618 299.798 168.769 299.263C166.061 298.754 162.733 297.196 159.905 296.485C146.959 293.226 134.091 290.782 120.979 289.478C117.842 289.165 115.564 289.529 112.54 290.08C110.28 290.492 104.313 292.948 102.614 291.508C96.4745 286.304 112.878 281.534 115.8 281.21Z" fill="black"/>
<path fill-rule="evenodd" clip-rule="evenodd" d="M306.085 306.25C306.913 310.89 304.554 311.322 300.612 313.491C296.586 315.706 292.564 317.525 288.311 319.313C283.729 321.239 278.927 323.215 274.154 324.62C270.111 325.812 263.876 328.481 259.677 328.085C257.983 327.926 256.888 328.147 256.875 326.048C256.863 323.771 259.004 323.907 260.771 323.404C266.179 321.865 271.415 319.554 276.732 317.721C286.746 314.272 296.777 311.359 306.085 306.25Z" fill="black"/>
<path fill-rule="evenodd" clip-rule="evenodd" d="M2.71833 79.362C-0.418037 74.1846 -0.354979 67.2827 0.512861 61.4326C0.805294 59.4606 5.56304 44.8827 8.43772 47.9129C10.1427 49.7103 4.33892 61.1591 3.7312 63.7754C2.99815 66.9297 2.62137 70.05 3.10456 73.2741C3.23619 74.1456 5.18864 79.6777 2.71833 79.362Z" fill="black"/>
<path fill-rule="evenodd" clip-rule="evenodd" d="M167.084 108.75C164.787 105.609 167.862 98.5803 168.793 95.2414C169.366 93.1835 171.118 85.4544 173.895 87.1042C176.591 88.7055 173.573 95.9501 173.033 97.9505C172.233 100.918 171.068 108.675 167.084 108.75Z" fill="black"/>
<path fill-rule="evenodd" clip-rule="evenodd" d="M421.875 276.138C422.297 275.134 422.719 274.13 423.141 273.125C424.214 273.94 425.711 274.341 424.619 275.577C423.948 276.338 422.818 276.336 421.875 276.138Z" fill="black"/>
<path fill-rule="evenodd" clip-rule="evenodd" d="M383.125 80.1733C381.244 80.4615 379.989 80.4771 378.125 80.4333C379.792 80.3465 381.459 80.2602 383.125 80.1733Z" fill="black"/>
<path fill-rule="evenodd" clip-rule="evenodd" d="M444.069 226.25C444.065 225 444.06 223.749 444.056 222.5C444.06 223.752 444.065 225.001 444.069 226.25Z" fill="black"/>
<path fill-rule="evenodd" clip-rule="evenodd" d="M141.568 132.5C141.564 131.249 141.56 129.999 141.557 128.75C141.561 130.001 141.565 131.251 141.568 132.5Z" fill="black"/>
<path fill-rule="evenodd" clip-rule="evenodd" d="M200 22.9714C198.75 22.9632 197.499 22.9564 196.25 22.9482C197.506 22.4401 198.753 22.6845 200 22.9714Z" fill="black"/>
<path fill-rule="evenodd" clip-rule="evenodd" d="M208.462 408.125C208.447 408.959 208.43 409.793 208.413 410.625C208.429 409.79 208.445 408.957 208.462 408.125Z" fill="black"/>
<path fill-rule="evenodd" clip-rule="evenodd" d="M50.625 108.427C51.2526 108.434 51.8787 108.44 52.5 108.448C51.871 108.442 51.2484 108.434 50.625 108.427Z" fill="black"/>
<path fill-rule="evenodd" clip-rule="evenodd" d="M403.453 329.375C403.443 328.54 403.433 327.705 403.422 326.875C403.432 327.711 403.442 328.543 403.453 329.375Z" fill="black"/>
<path fill-rule="evenodd" clip-rule="evenodd" d="M435.254 165.625C435.293 164.79 435.332 163.957 435.371 163.125C435.332 163.96 435.293 164.793 435.254 165.625Z" fill="black"/>
<path fill-rule="evenodd" clip-rule="evenodd" d="M378.506 39.375C378.461 40.2091 378.416 41.0438 378.369 41.875C378.414 41.0402 378.46 40.2083 378.506 39.375Z" fill="black"/>
<path fill-rule="evenodd" clip-rule="evenodd" d="M539.05 313.75C539.058 312.915 539.067 312.081 539.075 311.25C539.066 312.085 539.058 312.917 539.05 313.75Z" fill="black"/>
<path fill-rule="evenodd" clip-rule="evenodd" d="M290.348 25.625C290.325 24.7902 290.302 23.9553 290.277 23.125C290.3 23.9607 290.324 24.7929 290.348 25.625Z" fill="black"/>
<path fill-rule="evenodd" clip-rule="evenodd" d="M29.0094 79.375C29.045 78.5405 29.08 77.706 29.1156 76.875C29.0794 77.7104 29.045 78.5431 29.0094 79.375Z" fill="black"/>
<path fill-rule="evenodd" clip-rule="evenodd" d="M254.375 70.3166C255.002 70.3141 255.629 70.311 256.25 70.3085C255.62 70.311 254.998 70.3141 254.375 70.3166Z" fill="black"/>
<path fill-rule="evenodd" clip-rule="evenodd" d="M464.749 28.125C464.708 27.2902 464.667 26.4572 464.626 25.625C464.667 26.4598 464.708 27.292 464.749 28.125Z" fill="black"/>
<path fill-rule="evenodd" clip-rule="evenodd" d="M52.8116 157.5C52.8128 158.335 52.8134 159.17 52.8134 160C52.8122 159.164 52.8122 158.332 52.8116 157.5Z" fill="black"/>
<path fill-rule="evenodd" clip-rule="evenodd" d="M542.889 302.5C542.837 301.666 542.787 300.832 542.736 300C542.787 300.835 542.838 301.667 542.889 302.5Z" fill="black"/>
<path fill-rule="evenodd" clip-rule="evenodd" d="M231.875 295.967C232.502 295.947 233.129 295.928 233.75 295.908C233.121 295.928 232.498 295.948 231.875 295.967Z" fill="black"/>
<path fill-rule="evenodd" clip-rule="evenodd" d="M435.386 182.5C435.337 181.666 435.288 180.832 435.239 180C435.288 180.834 435.337 181.667 435.386 182.5Z" fill="black"/>
<path fill-rule="evenodd" clip-rule="evenodd" d="M135.625 280.929C134.791 280.935 133.958 280.941 133.125 280.946C133.959 280.941 134.791 280.935 135.625 280.929Z" fill="black"/>
<path fill-rule="evenodd" clip-rule="evenodd" d="M115.625 280.82C114.791 280.898 113.958 280.977 113.125 281.055C113.959 280.976 114.792 280.898 115.625 280.82Z" fill="black"/>
<path fill-rule="evenodd" clip-rule="evenodd" d="M434.715 176.875C434.697 176.25 434.678 175.624 434.66 175C434.678 175.625 434.697 176.25 434.715 176.875Z" fill="black"/>
<path fill-rule="evenodd" clip-rule="evenodd" d="M462.865 55C462.829 54.374 462.795 53.7488 462.76 53.125C462.796 53.751 462.83 54.3755 462.865 55Z" fill="black"/>
<path fill-rule="evenodd" clip-rule="evenodd" d="M271.555 60.625C271.56 59.9995 271.565 59.3747 271.57 58.75C271.566 59.3763 271.561 60.0003 271.555 60.625Z" fill="black"/>
<path fill-rule="evenodd" clip-rule="evenodd" d="M184.592 232.638C184.936 232.658 185.28 232.678 185.625 232.698C184.854 233.362 183.953 232.679 184.592 232.638Z" fill="black"/>
<path fill-rule="evenodd" clip-rule="evenodd" d="M222.5 295.323C222.919 295.316 223.336 295.308 223.75 295.302C223.33 295.31 222.915 295.316 222.5 295.323Z" fill="black"/>
<path fill-rule="evenodd" clip-rule="evenodd" d="M542.258 297.5C542.211 296.874 542.164 296.249 542.117 295.625C542.165 296.251 542.211 296.875 542.258 297.5Z" fill="black"/>
<path fill-rule="evenodd" clip-rule="evenodd" d="M54.7669 174.375C54.7138 175.001 54.6606 175.626 54.6081 176.25C54.6613 175.624 54.7144 174.999 54.7669 174.375Z" fill="black"/>
<path fill-rule="evenodd" clip-rule="evenodd" d="M341.25 93.8973C340.502 94.4542 339.599 94.143 338.75 94.1236C339.584 94.048 340.417 93.973 341.25 93.8973Z" fill="black"/>
<path fill-rule="evenodd" clip-rule="evenodd" d="M538.423 321.875C538.433 321.249 538.443 320.623 538.452 320C538.442 320.627 538.433 321.251 538.423 321.875Z" fill="black"/>
<path fill-rule="evenodd" clip-rule="evenodd" d="M397.114 345C397.163 344.374 397.212 343.748 397.261 343.125C397.212 343.752 397.163 344.376 397.114 345Z" fill="black"/>
<path fill-rule="evenodd" clip-rule="evenodd" d="M43.75 107.776C44.1688 107.8 44.5868 107.824 45 107.849C44.5805 107.825 44.1653 107.8 43.75 107.776Z" fill="black"/>
<path fill-rule="evenodd" clip-rule="evenodd" d="M321.25 73.3362C320.416 73.4037 319.584 73.4712 318.75 73.5387C319.584 73.4712 320.416 73.4037 321.25 73.3362Z" fill="black"/>
<path fill-rule="evenodd" clip-rule="evenodd" d="M261.021 405C260.965 405.625 260.909 406.251 260.854 406.875C260.909 406.247 260.965 405.624 261.021 405Z" fill="black"/>
<path fill-rule="evenodd" clip-rule="evenodd" d="M138.125 168.343C137.292 168.406 136.459 168.468 135.625 168.532C136.459 168.468 137.292 168.406 138.125 168.343Z" fill="black"/>
<path fill-rule="evenodd" clip-rule="evenodd" d="M243.125 380.412C244.791 380.346 246.458 380.279 248.125 380.214C246.459 380.279 244.791 380.345 243.125 380.412Z" fill="black"/>
<path fill-rule="evenodd" clip-rule="evenodd" d="M395.251 321.875C395.292 320.832 395.334 319.79 395.374 318.75C395.333 319.792 395.292 320.834 395.251 321.875Z" fill="black"/>
<path fill-rule="evenodd" clip-rule="evenodd" d="M428.75 39.801C429.791 39.7253 430.833 39.6497 431.875 39.5741C430.834 39.6497 429.791 39.7253 428.75 39.801Z" fill="black"/>
<path fill-rule="evenodd" clip-rule="evenodd" d="M131.25 252.087C132.292 252.154 133.334 252.221 134.375 252.288C133.333 252.221 132.291 252.154 131.25 252.087Z" fill="black"/>
<path fill-rule="evenodd" clip-rule="evenodd" d="M205.344 228.125C204.904 227.187 204.927 226.354 205.415 225.625C205.676 226.476 205.652 227.309 205.344 228.125Z" fill="black"/>
<path fill-rule="evenodd" clip-rule="evenodd" d="M504.673 287.5C504.683 288.335 504.691 289.17 504.702 290C504.693 289.164 504.684 288.332 504.673 287.5Z" fill="black"/>
<path fill-rule="evenodd" clip-rule="evenodd" d="M254.077 369.375C254.067 368.54 254.057 367.705 254.048 366.875C254.058 367.713 254.068 368.544 254.077 369.375Z" fill="black"/>
<path fill-rule="evenodd" clip-rule="evenodd" d="M224.375 285.833C225.209 285.903 226.042 285.973 226.875 286.043C226.041 285.973 225.209 285.902 224.375 285.833Z" fill="black"/>
<path fill-rule="evenodd" clip-rule="evenodd" d="M208.79 231.199C208.661 230.194 208.842 229.822 209.335 230.079C209.464 231.023 209.283 231.396 208.79 231.199Z" fill="black"/>
<path fill-rule="evenodd" clip-rule="evenodd" d="M239.7 188.75C239.692 189.376 239.683 190.001 239.675 190.625C239.684 189.999 239.692 189.374 239.7 188.75Z" fill="black"/>
<path fill-rule="evenodd" clip-rule="evenodd" d="M526.57 307.5C526.565 306.874 526.56 306.249 526.555 305.625C526.559 306.251 526.565 306.875 526.57 307.5Z" fill="black"/>
<path fill-rule="evenodd" clip-rule="evenodd" d="M436.875 39.6897C437.708 39.6884 438.542 39.6872 439.375 39.6853C438.541 39.6866 437.708 39.6884 436.875 39.6897Z" fill="black"/>
<path fill-rule="evenodd" clip-rule="evenodd" d="M416.25 116.038L418.75 115.837L416.25 116.038Z" fill="black"/>
<path fill-rule="evenodd" clip-rule="evenodd" d="M376.875 220.947C376.457 220.941 376.038 220.934 375.625 220.927C376.045 220.934 376.46 220.941 376.875 220.947Z" fill="black"/>
<path fill-rule="evenodd" clip-rule="evenodd" d="M391.505 340C391.544 339.375 391.582 338.749 391.62 338.125C391.581 338.752 391.543 339.376 391.505 340Z" fill="black"/>
<path fill-rule="evenodd" clip-rule="evenodd" d="M295 349.664C294.581 349.679 294.163 349.696 293.75 349.711C294.17 349.695 294.585 349.679 295 349.664Z" fill="black"/>
<path fill-rule="evenodd" clip-rule="evenodd" d="M239.681 191.25C239.685 191.876 239.69 192.503 239.694 193.125C239.691 192.498 239.686 191.873 239.681 191.25Z" fill="black"/>
<path fill-rule="evenodd" clip-rule="evenodd" d="M201.875 30.9369C201.248 30.9375 200.621 30.9381 200 30.9381C200.629 30.9381 201.253 30.9375 201.875 30.9369Z" fill="black"/>
<path fill-rule="evenodd" clip-rule="evenodd" d="M204.847 80.625C205.731 81.1995 205.862 81.8247 205.239 82.5C204.236 82.4213 204.107 81.7968 204.847 80.625Z" fill="black"/>
<path fill-rule="evenodd" clip-rule="evenodd" d="M251.875 54.6688C252.708 54.6813 253.543 54.6938 254.375 54.7063C253.542 54.6938 252.707 54.6813 251.875 54.6688Z" fill="black"/>
<path fill-rule="evenodd" clip-rule="evenodd" d="M234.065 65C234.063 65.6258 234.062 66.2516 234.06 66.875C234.062 66.2477 234.063 65.6242 234.065 65Z" fill="black"/>
<path fill-rule="evenodd" clip-rule="evenodd" d="M218.75 66.0475L221.25 65.8275L218.75 66.0475Z" fill="black"/>
<path fill-rule="evenodd" clip-rule="evenodd" d="M331.774 180.878C325.65 181.552 317.863 180.967 312.331 177.986C308.496 175.919 306.718 169.145 312.287 168.193C315.414 167.658 319.167 170.413 321.931 171.477C325.222 172.742 328.656 173.338 332.044 174.225C334.344 174.827 337.685 176.347 335.585 179.635C335.206 180.228 331.817 182.018 331.774 180.878Z" fill="black"/>
<path fill-rule="evenodd" clip-rule="evenodd" d="M418.125 211.005C417.525 214.937 417.435 219.279 415.549 222.872C412.83 228.052 412.293 222.503 412.722 219.657C413.354 215.461 413.696 211.164 413.381 206.923C413.124 203.448 410.785 199.378 412.497 196.25C417.17 199.277 417.265 206.045 418.125 211.005Z" fill="black"/>
<path fill-rule="evenodd" clip-rule="evenodd" d="M418.338 88.7347C415.753 88.143 411.525 86.4341 415.168 84.0236C416.648 83.0439 419.565 83.514 421.218 82.596C422.219 82.0405 422.787 80.8507 423.79 80.4193C427.116 78.9885 427.457 81.4314 426.206 84.5379C424.881 87.8238 421.702 88.8943 418.338 88.7347Z" fill="black"/>
<path fill-rule="evenodd" clip-rule="evenodd" d="M416.842 68.0496C421.09 64.8741 420.512 68.8412 418.267 71.6353C417.433 72.5774 416.596 73.5186 415.759 74.459L416.493 75.3575C416.367 76.6357 417.562 77.5811 416.097 78.4179C413.68 79.8006 411.864 76.533 411.875 74.7237C411.892 71.7216 414.849 69.8392 416.842 68.0496Z" fill="black"/>
<path fill-rule="evenodd" clip-rule="evenodd" d="M416.295 68.3047C412.33 72.1923 412.478 64.3655 414.586 62.6783C418.632 59.4391 416.026 66.953 416.295 68.3047Z" fill="black"/>
<path fill-rule="evenodd" clip-rule="evenodd" d="M423.876 71.2457C423.594 69.8667 423.557 63.3362 426.303 63.7707C429.29 64.243 426.001 71.451 423.876 71.2457Z" fill="black"/>
<path fill-rule="evenodd" clip-rule="evenodd" d="M418.75 89.0363C419.169 89.0538 419.587 89.0719 420 89.0888C419.58 89.0719 419.165 89.0538 418.75 89.0363Z" fill="black"/>
<path fill-rule="evenodd" clip-rule="evenodd" d="M228.336 40C224.954 34.2381 232.673 24.3997 236.538 32.3626C237.062 33.4411 238.249 36.3478 236.821 37.2419C235.288 38.2017 235.616 36.8069 234.355 36.5968C232.851 36.3461 233.343 35.6445 231.596 36.4067C230.355 36.948 229.194 39.0062 228.336 40Z" fill="black"/>
</g>
<defs>
<clipPath id="clip0">
<rect width="640" height="480" fill="white"/>
</clipPath>
</defs>
</svg>
